# xmcd
#
# Track frame offsets:
#  75
#  20050
#  38964
#  63115
#  85611
#  108129
#  130138
#  148599
#  161494
#  175613
#  189854
#  207111
#  222120
#  234120
#
# Disc length: 3481 seconds
#
# Revision: 0
# Processed by: cddbd v1.4PL0 Copyright (c) Steve Scherf et al.
# Submitted via: AltoMP3_Maker 3.0
#
DISCID=a90d980e
DTITLE=Fabrizio De Andrè - Omonimo
DYEAR=1900
DGENRE=
TTITLE0=Il Suonatore Jones
TTITLE1=Ottocento
TTITLE2=Andrea
TTITLE3=Verranno a chiederti del nostro amore
TTITLE4=Canzone per l'estate
TTITLE5=Hotel Supramonte
TTITLE6=Don Raffaè
TTITLE7=Amore che vieni Amore che vai
TTITLE8=Suzanne
TTITLE9=La ballata del Michè
TTITLE10=Canzone del maggio
TTITLE11=La guerra di Piero
TTITLE12=Girotondo
TTITLE13=Anime Salve
EXTD=
EXTT0=
EXTT1=
EXTT2=
EXTT3=
EXTT4=
EXTT5=
EXTT6=
EXTT7=
EXTT8=
EXTT9=
EXTT10=
EXTT11=
EXTT12=
EXTT13=
PLAYORDER=
